<?xml version="1.0" encoding="UTF-8" standalone="no"?>
<!DOCTYPE svg PUBLIC "-//W3C//DTD SVG 20010904//EN"
              "http://www.w3.org/TR/2001/REC-SVG-20010904/DTD/svg10.dtd">

<svg xmlns="http://www.w3.org/2000/svg"
     width="143.26mm" height="142.555mm"
     viewBox="0 0 406 404">
  <path id="Seleção"
        fill="none" stroke="black" stroke-width="1"
        d="M 362.00,0.43
           C 369.01,-0.28 377.72,1.66 384.00,4.81
             389.08,7.36 393.07,10.74 396.82,15.00
             404.81,24.09 406.13,32.42 406.00,44.00
             405.88,54.11 402.61,59.27 398.25,68.00
             398.25,68.00 382.74,98.00 382.74,98.00
             382.74,98.00 374.23,113.96 374.23,113.96
             373.68,117.43 383.74,124.43 386.39,128.00
             393.49,137.55 394.13,145.68 394.00,157.00
             393.82,171.98 385.56,180.29 377.67,192.00
             377.67,192.00 339.00,250.00 339.00,250.00
             339.00,250.00 316.99,284.00 316.99,284.00
             316.99,284.00 307.99,309.00 307.99,309.00
             303.64,319.44 297.17,329.83 290.57,339.00
             267.97,370.44 230.86,393.51 193.00,401.20
             185.68,402.69 178.49,403.99 171.00,404.00
             171.00,404.00 150.00,404.00 150.00,404.00
             136.26,403.84 123.01,399.64 110.00,395.72
             93.91,390.87 78.60,383.82 65.00,373.85
             30.31,348.42 8.22,309.16 1.44,267.00
             -0.41,255.52 -0.02,244.56 0.00,233.00
             0.05,200.89 15.57,167.00 34.89,142.00
             50.38,121.95 71.57,105.76 95.00,96.01
             95.00,96.01 111.00,90.02 111.00,90.02
             111.00,90.02 132.00,83.62 132.00,83.62
             132.00,83.62 189.00,46.00 189.00,46.00
             189.00,46.00 220.00,25.33 220.00,25.33
             225.11,21.93 234.48,15.57 240.00,13.75
             245.92,11.79 249.91,11.93 256.00,12.00
             264.89,12.11 273.33,15.20 279.99,21.18
             286.81,27.31 287.55,32.95 293.00,32.01
             295.69,31.54 306.71,24.96 310.00,23.26
             326.46,14.77 343.53,3.19 362.00,0.43 Z
           M 364.00,43.00
           C 364.00,43.00 320.00,65.14 320.00,65.14
             320.00,65.14 265.00,93.86 265.00,93.86
             265.00,93.86 241.00,106.47 241.00,106.47
             237.91,107.87 233.98,108.29 232.06,104.77
             230.11,101.19 234.58,93.36 236.25,90.00
             236.25,90.00 253.00,54.00 253.00,54.00
             246.41,56.52 228.04,69.64 221.00,74.33
             221.00,74.33 179.00,102.03 179.00,102.03
             179.00,102.03 150.00,121.55 150.00,121.55
             143.17,125.58 130.44,127.52 122.00,130.33
             106.72,135.43 92.03,143.35 80.00,154.17
             30.26,198.93 28.98,281.64 76.17,328.83
             96.77,349.43 129.89,362.66 159.00,363.00
             200.31,363.48 239.79,342.07 261.77,307.00
             267.73,297.48 271.94,288.65 275.49,278.00
             275.49,278.00 279.21,266.00 279.21,266.00
             279.21,266.00 292.02,246.00 292.02,246.00
             292.02,246.00 334.05,183.00 334.05,183.00
             338.69,175.70 349.70,161.22 352.00,154.00
             352.00,154.00 315.00,171.24 315.00,171.24
             311.55,172.94 304.89,176.86 301.23,174.22
             297.51,171.45 299.50,167.27 301.23,164.00
             301.23,164.00 312.74,142.00 312.74,142.00
             312.74,142.00 349.26,72.00 349.26,72.00
             349.26,72.00 364.00,43.00 364.00,43.00 Z
           M 281.00,117.64
           C 291.36,115.84 290.74,122.76 287.72,130.00
             287.72,130.00 269.75,171.00 269.75,171.00
             269.75,171.00 238.86,241.00 238.86,241.00
             226.41,268.97 211.54,302.50 180.00,312.91
             171.30,315.78 162.06,316.10 153.00,316.00
             118.56,315.59 92.20,285.20 90.09,252.00
             89.18,237.77 95.92,218.12 104.67,207.00
             122.00,184.97 152.07,173.39 177.00,162.58
             177.00,162.58 237.00,136.70 237.00,136.70
             237.00,136.70 281.00,117.64 281.00,117.64 Z" />
</svg>
